<svg xmlns="http://www.w3.org/2000/svg" viewBox="0 0 1024 1024">
  <rect width="1024" height="1024" rx="224" fill="#0a0a0a"/>
  <g transform="translate(112 96) scale(12.5)">
    <g transform="translate(7, 1)">
      <rect x="22" y="44" width="16" height="10" rx="3" fill="#c62828"/>
      <rect x="22" y="44" width="16" height="4" rx="2" fill="#fff" opacity="0.15"/>
      <path d="M14 22c0-8 5-14 14-14s14 6 14 14v10c0 6-4 10-8 12H22c-4-2-8-6-8-12V22z" fill="#ef4444"/>
      <ellipse cx="13" cy="28" rx="5" ry="8" fill="#ef4444"/>
      <ellipse cx="13" cy="28" rx="4" ry="7" fill="#d32f2f"/>
      <path d="M18 26c2 2.5 8 4 14 0" stroke="#b71c1c" stroke-width="2" stroke-linecap="round" fill="none" opacity="0.5"/>
      <ellipse cx="30" cy="18" rx="6" ry="5" fill="#fff" opacity="0.1"/>
    </g>
  </g>
</svg>
